TITLE ""
FILE "P1Q_t_0801-0809.mp3" MP3
  TRACK 01 AUDIO
    TITLE "P1Q_t_0801-0809_01"
    INDEX 01 00:00:00
  TRACK 02 AUDIO
    TITLE "P1Q_t_0801-0809_02"
    INDEX 01 00:00:10
  TRACK 03 AUDIO
    TITLE "P1Q_t_0801-0809_03"
    INDEX 01 00:01:57
  TRACK 04 AUDIO
    TITLE "P1Q_t_0801-0809_04"
    INDEX 01 00:02:29
  TRACK 05 AUDIO
    TITLE "P1Q_t_0801-0809_05"
    INDEX 01 00:03:34
  TRACK 06 AUDIO
    TITLE "P1Q_t_0801-0809_06"
    INDEX 01 00:04:04
  TRACK 07 AUDIO
    TITLE "P1Q_t_0801-0809_07"
    INDEX 01 00:05:27
  TRACK 08 AUDIO
    TITLE "P1Q_t_0801-0809_08"
    INDEX 01 00:05:47
  TRACK 09 AUDIO
    TITLE "P1Q_t_0801-0809_09"
    INDEX 01 00:08:73
  TRACK 10 AUDIO
    TITLE "P1Q_t_0801-0809_10"
    INDEX 01 00:09:17
  TRACK 11 AUDIO
    TITLE "P1Q_t_0801-0809_11"
    INDEX 01 00:12:53
  TRACK 12 AUDIO
    TITLE "P1Q_t_0801-0809_12"
    INDEX 01 00:13:27
  TRACK 13 AUDIO
    TITLE "P1Q_t_0801-0809_13"
    INDEX 01 00:14:38
  TRACK 14 AUDIO
    TITLE "P1Q_t_0801-0809_14"
    INDEX 01 00:14:59
  TRACK 15 AUDIO
    TITLE "P1Q_t_0801-0809_15"
    INDEX 01 00:17:64
  TRACK 16 AUDIO
    TITLE "P1Q_t_0801-0809_16"
    INDEX 01 00:18:08
  TRACK 17 AUDIO
    TITLE "P1Q_t_0801-0809_17"
    INDEX 01 00:21:71
  TRACK 18 AUDIO
    TITLE "P1Q_t_0801-0809_18"
    INDEX 01 00:22:43
  TRACK 19 AUDIO
    TITLE "P1Q_t_0801-0809_19"
    INDEX 01 00:23:52
  TRACK 20 AUDIO
    TITLE "P1Q_t_0801-0809_20"
    INDEX 01 00:23:74
  TRACK 21 AUDIO
    TITLE "P1Q_t_0801-0809_21"
    INDEX 01 00:25:46
  TRACK 22 AUDIO
    TITLE "P1Q_t_0801-0809_22"
    INDEX 01 00:25:67
  TRACK 23 AUDIO
    TITLE "P1Q_t_0801-0809_23"
    INDEX 01 00:29:61
  TRACK 24 AUDIO
    TITLE "P1Q_t_0801-0809_24"
    INDEX 01 00:30:33
  TRACK 25 AUDIO
    TITLE "P1Q_t_0801-0809_25"
    INDEX 01 00:31:48
  TRACK 26 AUDIO
    TITLE "P1Q_t_0801-0809_26"
    INDEX 01 00:31:70
  TRACK 27 AUDIO
    TITLE "P1Q_t_0801-0809_27"
    INDEX 01 00:36:12
  TRACK 28 AUDIO
    TITLE "P1Q_t_0801-0809_28"
    INDEX 01 00:36:32
  TRACK 29 AUDIO
    TITLE "P1Q_t_0801-0809_29"
    INDEX 01 00:41:48
  TRACK 30 AUDIO
    TITLE "P1Q_t_0801-0809_30"
    INDEX 01 00:42:19
  TRACK 31 AUDIO
    TITLE "P1Q_t_0801-0809_31"
    INDEX 01 00:43:40
  TRACK 32 AUDIO
    TITLE "P1Q_t_0801-0809_32"
    INDEX 01 00:43:57
  TRACK 33 AUDIO
    TITLE "P1Q_t_0801-0809_33"
    INDEX 01 00:46:36
  TRACK 34 AUDIO
    TITLE "P1Q_t_0801-0809_34"
    INDEX 01 00:46:55
  TRACK 35 AUDIO
    TITLE "P1Q_t_0801-0809_35"
    INDEX 01 00:49:71
  TRACK 36 AUDIO
    TITLE "P1Q_t_0801-0809_36"
    INDEX 01 00:50:43
  TRACK 37 AUDIO
    TITLE "P1Q_t_0801-0809_37"
    INDEX 01 00:51:63
  TRACK 38 AUDIO
    TITLE "P1Q_t_0801-0809_38"
    INDEX 01 00:52:09
  TRACK 39 AUDIO
    TITLE "P1Q_t_0801-0809_39"
    INDEX 01 00:54:30
  TRACK 40 AUDIO
    TITLE "P1Q_t_0801-0809_40"
    INDEX 01 00:54:49
  TRACK 41 AUDIO
    TITLE "P1Q_t_0801-0809_41"
    INDEX 01 00:59:64
  TRACK 42 AUDIO
    TITLE "P1Q_t_0801-0809_42"
    INDEX 01 01:00:34
  TRACK 43 AUDIO
    TITLE "P1Q_t_0801-0809_43"
    INDEX 01 01:01:53
  TRACK 44 AUDIO
    TITLE "P1Q_t_0801-0809_44"
    INDEX 01 01:01:75
  TRACK 45 AUDIO
    TITLE "P1Q_t_0801-0809_45"
    INDEX 01 01:06:23
  TRACK 46 AUDIO
    TITLE "P1Q_t_0801-0809_46"
    INDEX 01 01:06:44
  TRACK 47 AUDIO
    TITLE "P1Q_t_0801-0809_47"
    INDEX 01 01:09:72
  TRACK 48 AUDIO
    TITLE "P1Q_t_0801-0809_48"
    INDEX 01 01:10:44
  TRACK 49 AUDIO
    TITLE "P1Q_t_0801-0809_49"
    INDEX 01 01:11:48
  TRACK 50 AUDIO
    TITLE "P1Q_t_0801-0809_50"
    INDEX 01 01:11:71
  TRACK 51 AUDIO
    TITLE "P1Q_t_0801-0809_51"
    INDEX 01 01:13:72
  TRACK 52 AUDIO
    TITLE "P1Q_t_0801-0809_52"
    INDEX 01 01:14:18
  TRACK 53 AUDIO
    TITLE "P1Q_t_0801-0809_53"
    INDEX 01 01:17:54
  TRACK 54 AUDIO
    TITLE "P1Q_t_0801-0809_54"
    INDEX 01 01:18:28
  TRACK 55 AUDIO
    TITLE "P1Q_t_0801-0809_55"
    INDEX 01 01:19:47
  TRACK 56 AUDIO
    TITLE "P1Q_t_0801-0809_56"
    INDEX 01 01:19:67
  TRACK 57 AUDIO
    TITLE "P1Q_t_0801-0809_57"
    INDEX 01 01:23:31
  TRACK 58 AUDIO
    TITLE "P1Q_t_0801-0809_58"
    INDEX 01 01:23:49
  TRACK 59 AUDIO
    TITLE "P1Q_t_0801-0809_59"
    INDEX 01 01:28:28
